# xmcd
#
# Track frame offsets: 
#        150
#        13796
#        28157
#        67612
#        81886
#        89018
#        105485
#        114497
#        130032
#        145444
#        169451
#
# Disc length: 2442 seconds
#
# Revision: 0
# Processed by: cddbd v1.5.2PL0 Copyright (c) Steve Scherf et al.
# Submitted via: ExactAudioCopy v1.0b1
#
DISCID=9109880b
DTITLE=Stanisław Soyka - Radioaktywny
DYEAR=1989
DGENRE=Vocal
TTITLE0=Jak Dzieci
TTITLE1=Monolog Pajaca
TTITLE2=Niebo Oczekiwanie Nasze
TTITLE3=Zaczepka Platoniczna
TTITLE4=Plotki
TTITLE5=Absolutnie Nic
TTITLE6=Popoludniowe Miasto
TTITLE7=Niech Drgnie Twoje Oko
TTITLE8=Nocny Papieros
TTITLE9=Niech Caluja Cie Moje Oczy
TTITLE10=Dobranoc
EXTD=
EXTT0=
EXTT1=
EXTT2=
EXTT3=
EXTT4=
EXTT5=
EXTT6=
EXTT7=
EXTT8=
EXTT9=
EXTT10=
PLAYORDER=
